<svg width="26" height="26" viewBox="0 0 24 24" fill="none" xmlns="http://www.w3.org/2000/svg">
<path d="M12.48 20.38C11.4492 20.3799 10.4366 20.1083 9.544 19.5926C8.65144 19.0769 7.91043 18.3352 7.39551 17.4422C6.88058 16.5492 6.6099 15.5363 6.61069 14.5055C6.61148 13.4747 6.88371 12.4622 7.40001 11.57V11.57L11.76 4C11.8341 3.87345 11.9399 3.76849 12.0671 3.69555C12.1943 3.62261 12.3384 3.58424 12.485 3.58424C12.6316 3.58424 12.7757 3.62261 12.9029 3.69555C13.0301 3.76849 13.136 3.87345 13.21 4L17.57 11.55C18.0867 12.443 18.359 13.4563 18.3593 14.488C18.3597 15.5197 18.0881 16.5332 17.572 17.4265C17.0559 18.3198 16.3135 19.0614 15.4195 19.5763C14.5256 20.0913 13.5117 20.3616 12.48 20.36V20.38Z" stroke="white" stroke-width="1.2" stroke-linecap="round" stroke-linejoin="round"/>
<path d="M15.44 13.57C15.6141 14.2021 15.5764 14.8738 15.3326 15.4824C15.0888 16.091 14.6523 16.603 14.09 16.94" stroke="white" stroke-width="1.2" stroke-linecap="round" stroke-linejoin="round"/>
</svg>
