<svg width="26" height="26" viewBox="0 0 24 24" fill="none" xmlns="http://www.w3.org/2000/svg">
<path d="M16 10.71C16.0387 10.284 16.2003 9.87839 16.465 9.54239C16.7297 9.20639 17.0862 8.95443 17.4914 8.81709C17.8965 8.67975 18.3327 8.66293 18.7472 8.76866C19.1617 8.8744 19.5366 9.09815 19.8264 9.41276C20.1162 9.72738 20.3085 10.1193 20.3799 10.5411C20.4513 10.9628 20.3988 11.3963 20.2287 11.7888C20.0587 12.1813 19.7783 12.516 19.4218 12.7523C19.0652 12.9886 18.6477 13.1163 18.22 13.12H4.85001" stroke="white" stroke-width="1.2" stroke-linecap="round" stroke-linejoin="round"/>
<path d="M9.22001 8.6C9.25873 8.17599 9.41966 7.77232 9.68328 7.43797C9.94689 7.10361 10.3019 6.85294 10.7051 6.71635C11.1084 6.57977 11.5427 6.56314 11.9552 6.66848C12.3677 6.77382 12.7408 6.99662 13.0293 7.30983C13.3177 7.62304 13.509 8.01322 13.5801 8.43302C13.6511 8.85283 13.5988 9.28424 13.4295 9.6749C13.2602 10.0656 12.9811 10.3987 12.6262 10.6339C12.2713 10.8691 11.8558 10.9963 11.43 11H3.60001" stroke="white" stroke-width="1.2" stroke-linecap="round" stroke-linejoin="round"/>
<path d="M13.23 17.65C13.2706 18.0758 13.434 18.4806 13.7002 18.8154C13.9664 19.1502 14.324 19.4005 14.7297 19.5361C15.1353 19.6716 15.5716 19.6865 15.9856 19.579C16.3996 19.4715 16.7735 19.2461 17.0619 18.9303C17.3503 18.6144 17.5409 18.2217 17.6105 17.7997C17.6801 17.3777 17.6258 16.9445 17.4541 16.5528C17.2824 16.161 17.0007 15.8275 16.6432 15.5927C16.2857 15.3579 15.8677 15.2319 15.44 15.23H7.61" stroke="white" stroke-width="1.2" stroke-linecap="round" stroke-linejoin="round"/>
</svg>
